<?xml version="1.0" encoding="utf-8" standalone="no"?>
<!DOCTYPE svg PUBLIC "-//W3C//DTD SVG 1.1//EN"
  "http://www.w3.org/Graphics/SVG/1.1/DTD/svg11.dtd">
<!-- Created with matplotlib (https://matplotlib.org/) -->
<svg height="345.6pt" version="1.1" viewBox="0 0 460.8 345.6" width="460.8pt" xmlns="http://www.w3.org/2000/svg" xmlns:xlink="http://www.w3.org/1999/xlink">
 <defs>
  <style type="text/css">
*{stroke-linecap:butt;stroke-linejoin:round;}
  </style>
 </defs>
 <g id="figure_1">
  <g id="patch_1">
   <path d="M 0 345.6 
L 460.8 345.6 
L 460.8 0 
L 0 0 
z
" style="fill:#ffffff;"/>
  </g>
  <g id="axes_1">
   <g id="LineCollection_1">
    <path clip-path="url(#p62cd143c4d)" d="M 361.065234 218.323139 
L 244.644837 184.307783 
" style="fill:none;stroke:#0000ff;"/>
    <path clip-path="url(#p62cd143c4d)" d="M 361.065234 218.323139 
L 295.647049 190.42901 
" style="fill:none;stroke:#0000ff;"/>
    <path clip-path="url(#p62cd143c4d)" d="M 361.065234 218.323139 
L 259.304396 138.604413 
" style="fill:none;stroke:#0000ff;"/>
    <path clip-path="url(#p62cd143c4d)" d="M 361.065234 218.323139 
L 334.228847 130.25957 
" style="fill:none;stroke:#5500ff;"/>
    <path clip-path="url(#p62cd143c4d)" d="M 361.065234 218.323139 
L 387.810377 170.573375 
" style="fill:none;stroke:#0000ff;"/>
    <path clip-path="url(#p62cd143c4d)" d="M 361.065234 218.323139 
L 253.052384 213.124831 
" style="fill:none;stroke:#8000ff;"/>
    <path clip-path="url(#p62cd143c4d)" d="M 361.065234 218.323139 
L 305.792781 138.362157 
" style="fill:none;stroke:#2000ff;"/>
    <path clip-path="url(#p62cd143c4d)" d="M 244.644837 184.307783 
L 295.647049 190.42901 
" style="fill:none;stroke:#0000ff;"/>
    <path clip-path="url(#p62cd143c4d)" d="M 244.644837 184.307783 
L 380.441842 197.690788 
" style="fill:none;stroke:#0000ff;"/>
    <path clip-path="url(#p62cd143c4d)" d="M 244.644837 184.307783 
L 259.304396 138.604413 
" style="fill:none;stroke:#0000ff;"/>
    <path clip-path="url(#p62cd143c4d)" d="M 244.644837 184.307783 
L 181.097065 201.462288 
" style="fill:none;stroke:#0000ff;"/>
    <path clip-path="url(#p62cd143c4d)" d="M 244.644837 184.307783 
L 334.228847 130.25957 
" style="fill:none;stroke:#0000ff;"/>
    <path clip-path="url(#p62cd143c4d)" d="M 244.644837 184.307783 
L 387.810377 170.573375 
" style="fill:none;stroke:#0000ff;"/>
    <path clip-path="url(#p62cd143c4d)" d="M 244.644837 184.307783 
L 311.253995 238.083778 
" style="fill:none;stroke:#0000ff;"/>
    <path clip-path="url(#p62cd143c4d)" d="M 244.644837 184.307783 
L 122.95797 171.253866 
" style="fill:none;stroke:#2700ff;"/>
    <path clip-path="url(#p62cd143c4d)" d="M 244.644837 184.307783 
L 253.052384 213.124831 
" style="fill:none;stroke:#3300ff;"/>
    <path clip-path="url(#p62cd143c4d)" d="M 244.644837 184.307783 
L 169.49386 139.249354 
" style="fill:none;stroke:#0000ff;"/>
    <path clip-path="url(#p62cd143c4d)" d="M 244.644837 184.307783 
L 305.792781 138.362157 
" style="fill:none;stroke:#2400ff;"/>
    <path clip-path="url(#p62cd143c4d)" d="M 244.644837 184.307783 
L 183.465848 242.367703 
" style="fill:none;stroke:#0000ff;"/>
    <path clip-path="url(#p62cd143c4d)" d="M 439.854545 160.350344 
L 295.647049 190.42901 
" style="fill:none;stroke:#0000ff;"/>
    <path clip-path="url(#p62cd143c4d)" d="M 439.854545 160.350344 
L 259.304396 138.604413 
" style="fill:none;stroke:#0000ff;"/>
    <path clip-path="url(#p62cd143c4d)" d="M 295.647049 190.42901 
L 380.441842 197.690788 
" style="fill:none;stroke:#0000ff;"/>
    <path clip-path="url(#p62cd143c4d)" d="M 295.647049 190.42901 
L 415.232514 282.312698 
" style="fill:none;stroke:#0000ff;"/>
    <path clip-path="url(#p62cd143c4d)" d="M 295.647049 190.42901 
L 273.201484 81.242639 
" style="fill:none;stroke:#2400ff;"/>
    <path clip-path="url(#p62cd143c4d)" d="M 295.647049 190.42901 
L 208.17184 89.479465 
" style="fill:none;stroke:#8000ff;"/>
    <path clip-path="url(#p62cd143c4d)" d="M 295.647049 190.42901 
L 259.304396 138.604413 
" style="fill:none;stroke:#2b00ff;"/>
    <path clip-path="url(#p62cd143c4d)" d="M 295.647049 190.42901 
L 181.097065 201.462288 
" style="fill:none;stroke:#0000ff;"/>
    <path clip-path="url(#p62cd143c4d)" d="M 295.647049 190.42901 
L 334.228847 130.25957 
" style="fill:none;stroke:#0000ff;"/>
    <path clip-path="url(#p62cd143c4d)" d="M 295.647049 190.42901 
L 387.810377 170.573375 
" style="fill:none;stroke:#0000ff;"/>
    <path clip-path="url(#p62cd143c4d)" d="M 295.647049 190.42901 
L 311.253995 238.083778 
" style="fill:none;stroke:#4900ff;"/>
    <path clip-path="url(#p62cd143c4d)" d="M 295.647049 190.42901 
L 253.052384 213.124831 
" style="fill:none;stroke:#5000ff;"/>
    <path clip-path="url(#p62cd143c4d)" d="M 295.647049 190.42901 
L 169.49386 139.249354 
" style="fill:none;stroke:#4600ff;"/>
    <path clip-path="url(#p62cd143c4d)" d="M 295.647049 190.42901 
L 305.792781 138.362157 
" style="fill:none;stroke:#8000ff;"/>
    <path clip-path="url(#p62cd143c4d)" d="M 295.647049 190.42901 
L 183.465848 242.367703 
" style="fill:none;stroke:#5500ff;"/>
    <path clip-path="url(#p62cd143c4d)" d="M 295.647049 190.42901 
L 415.831209 121.613374 
" style="fill:none;stroke:#4000ff;"/>
    <path clip-path="url(#p62cd143c4d)" d="M 295.647049 190.42901 
L 321.247685 315.113533 
" style="fill:none;stroke:#0000ff;"/>
    <path clip-path="url(#p62cd143c4d)" d="M 295.647049 190.42901 
L 134.131471 207.241983 
" style="fill:none;stroke:#0000ff;"/>
    <path clip-path="url(#p62cd143c4d)" d="M 380.441842 197.690788 
L 259.304396 138.604413 
" style="fill:none;stroke:#0000ff;"/>
    <path clip-path="url(#p62cd143c4d)" d="M 380.441842 197.690788 
L 334.228847 130.25957 
" style="fill:none;stroke:#0000ff;"/>
    <path clip-path="url(#p62cd143c4d)" d="M 380.441842 197.690788 
L 311.253995 238.083778 
" style="fill:none;stroke:#0000ff;"/>
    <path clip-path="url(#p62cd143c4d)" d="M 380.441842 197.690788 
L 253.052384 213.124831 
" style="fill:none;stroke:#0000ff;"/>
    <path clip-path="url(#p62cd143c4d)" d="M 380.441842 197.690788 
L 305.792781 138.362157 
" style="fill:none;stroke:#0000ff;"/>
    <path clip-path="url(#p62cd143c4d)" d="M 273.201484 81.242639 
L 259.304396 138.604413 
" style="fill:none;stroke:#0000ff;"/>
    <path clip-path="url(#p62cd143c4d)" d="M 273.201484 81.242639 
L 334.228847 130.25957 
" style="fill:none;stroke:#4000ff;"/>
    <path clip-path="url(#p62cd143c4d)" d="M 273.201484 81.242639 
L 169.49386 139.249354 
" style="fill:none;stroke:#5500ff;"/>
    <path clip-path="url(#p62cd143c4d)" d="M 273.201484 81.242639 
L 305.792781 138.362157 
" style="fill:none;stroke:#3000ff;"/>
    <path clip-path="url(#p62cd143c4d)" d="M 273.201484 81.242639 
L 393.009217 77.754257 
" style="fill:none;stroke:#3300ff;"/>
    <path clip-path="url(#p62cd143c4d)" d="M 208.17184 89.479465 
L 259.304396 138.604413 
" style="fill:none;stroke:#0000ff;"/>
    <path clip-path="url(#p62cd143c4d)" d="M 208.17184 89.479465 
L 190.252771 40.116024 
" style="fill:none;stroke:#ff00ff;"/>
    <path clip-path="url(#p62cd143c4d)" d="M 208.17184 89.479465 
L 169.49386 139.249354 
" style="fill:none;stroke:#0000ff;"/>
    <path clip-path="url(#p62cd143c4d)" d="M 259.304396 138.604413 
L 181.097065 201.462288 
" style="fill:none;stroke:#4000ff;"/>
    <path clip-path="url(#p62cd143c4d)" d="M 259.304396 138.604413 
L 334.228847 130.25957 
" style="fill:none;stroke:#8000ff;"/>
    <path clip-path="url(#p62cd143c4d)" d="M 259.304396 138.604413 
L 138.401767 63.91504 
" style="fill:none;stroke:#2900ff;"/>
    <path clip-path="url(#p62cd143c4d)" d="M 259.304396 138.604413 
L 387.810377 170.573375 
" style="fill:none;stroke:#0000ff;"/>
    <path clip-path="url(#p62cd143c4d)" d="M 259.304396 138.604413 
L 316.144769 42.863084 
" style="fill:none;stroke:#3c00ff;"/>
    <path clip-path="url(#p62cd143c4d)" d="M 259.304396 138.604413 
L 311.253995 238.083778 
" style="fill:none;stroke:#3300ff;"/>
    <path clip-path="url(#p62cd143c4d)" d="M 259.304396 138.604413 
L 266.903824 15.709091 
" style="fill:none;stroke:#0000ff;"/>
    <path clip-path="url(#p62cd143c4d)" d="M 259.304396 138.604413 
L 122.95797 171.253866 
" style="fill:none;stroke:#4000ff;"/>
    <path clip-path="url(#p62cd143c4d)" d="M 259.304396 138.604413 
L 253.052384 213.124831 
" style="fill:none;stroke:#2400ff;"/>
    <path clip-path="url(#p62cd143c4d)" d="M 259.304396 138.604413 
L 190.252771 40.116024 
" style="fill:none;stroke:#0000ff;"/>
    <path clip-path="url(#p62cd143c4d)" d="M 259.304396 138.604413 
L 169.49386 139.249354 
" style="fill:none;stroke:#ff00ff;"/>
    <path clip-path="url(#p62cd143c4d)" d="M 259.304396 138.604413 
L 305.792781 138.362157 
" style="fill:none;stroke:#0000ff;"/>
    <path clip-path="url(#p62cd143c4d)" d="M 259.304396 138.604413 
L 238.579186 270.605869 
" style="fill:none;stroke:#ff00ff;"/>
    <path clip-path="url(#p62cd143c4d)" d="M 259.304396 138.604413 
L 112.40507 102.663044 
" style="fill:none;stroke:#5500ff;"/>
    <path clip-path="url(#p62cd143c4d)" d="M 259.304396 138.604413 
L 183.465848 242.367703 
" style="fill:none;stroke:#5500ff;"/>
    <path clip-path="url(#p62cd143c4d)" d="M 259.304396 138.604413 
L 415.831209 121.613374 
" style="fill:none;stroke:#5500ff;"/>
    <path clip-path="url(#p62cd143c4d)" d="M 259.304396 138.604413 
L 393.009217 77.754257 
" style="fill:none;stroke:#0000ff;"/>
    <path clip-path="url(#p62cd143c4d)" d="M 259.304396 138.604413 
L 134.131471 207.241983 
" style="fill:none;stroke:#aa00ff;"/>
    <path clip-path="url(#p62cd143c4d)" d="M 259.304396 138.604413 
L 367.134137 49.814814 
" style="fill:none;stroke:#ff00ff;"/>
    <path clip-path="url(#p62cd143c4d)" d="M 21.486885 115.681523 
L 138.401767 63.91504 
" style="fill:none;stroke:#ff00ff;"/>
    <path clip-path="url(#p62cd143c4d)" d="M 21.486885 115.681523 
L 169.49386 139.249354 
" style="fill:none;stroke:#0000ff;"/>
    <path clip-path="url(#p62cd143c4d)" d="M 21.486885 115.681523 
L 112.40507 102.663044 
" style="fill:none;stroke:#4000ff;"/>
    <path clip-path="url(#p62cd143c4d)" d="M 21.486885 115.681523 
L 44.315994 63.545979 
" style="fill:none;stroke:#0000ff;"/>
    <path clip-path="url(#p62cd143c4d)" d="M 181.097065 201.462288 
L 253.052384 213.124831 
" style="fill:none;stroke:#0000ff;"/>
    <path clip-path="url(#p62cd143c4d)" d="M 181.097065 201.462288 
L 169.49386 139.249354 
" style="fill:none;stroke:#0000ff;"/>
    <path clip-path="url(#p62cd143c4d)" d="M 181.097065 201.462288 
L 305.792781 138.362157 
" style="fill:none;stroke:#5500ff;"/>
    <path clip-path="url(#p62cd143c4d)" d="M 181.097065 201.462288 
L 238.579186 270.605869 
" style="fill:none;stroke:#4700ff;"/>
    <path clip-path="url(#p62cd143c4d)" d="M 181.097065 201.462288 
L 183.465848 242.367703 
" style="fill:none;stroke:#0000ff;"/>
    <path clip-path="url(#p62cd143c4d)" d="M 334.228847 130.25957 
L 387.810377 170.573375 
" style="fill:none;stroke:#4000ff;"/>
    <path clip-path="url(#p62cd143c4d)" d="M 334.228847 130.25957 
L 316.144769 42.863084 
" style="fill:none;stroke:#0000ff;"/>
    <path clip-path="url(#p62cd143c4d)" d="M 334.228847 130.25957 
L 311.253995 238.083778 
" style="fill:none;stroke:#0000ff;"/>
    <path clip-path="url(#p62cd143c4d)" d="M 334.228847 130.25957 
L 253.052384 213.124831 
" style="fill:none;stroke:#0000ff;"/>
    <path clip-path="url(#p62cd143c4d)" d="M 334.228847 130.25957 
L 169.49386 139.249354 
" style="fill:none;stroke:#8000ff;"/>
    <path clip-path="url(#p62cd143c4d)" d="M 334.228847 130.25957 
L 305.792781 138.362157 
" style="fill:none;stroke:#0000ff;"/>
    <path clip-path="url(#p62cd143c4d)" d="M 334.228847 130.25957 
L 415.831209 121.613374 
" style="fill:none;stroke:#0000ff;"/>
    <path clip-path="url(#p62cd143c4d)" d="M 334.228847 130.25957 
L 393.009217 77.754257 
" style="fill:none;stroke:#0000ff;"/>
    <path clip-path="url(#p62cd143c4d)" d="M 334.228847 130.25957 
L 367.134137 49.814814 
" style="fill:none;stroke:#0000ff;"/>
    <path clip-path="url(#p62cd143c4d)" d="M 138.401767 63.91504 
L 169.49386 139.249354 
" style="fill:none;stroke:#0000ff;"/>
    <path clip-path="url(#p62cd143c4d)" d="M 138.401767 63.91504 
L 112.40507 102.663044 
" style="fill:none;stroke:#5500ff;"/>
    <path clip-path="url(#p62cd143c4d)" d="M 138.401767 63.91504 
L 44.315994 63.545979 
" style="fill:none;stroke:#5500ff;"/>
    <path clip-path="url(#p62cd143c4d)" d="M 387.810377 170.573375 
L 253.052384 213.124831 
" style="fill:none;stroke:#aa00ff;"/>
    <path clip-path="url(#p62cd143c4d)" d="M 387.810377 170.573375 
L 305.792781 138.362157 
" style="fill:none;stroke:#4000ff;"/>
    <path clip-path="url(#p62cd143c4d)" d="M 316.144769 42.863084 
L 305.792781 138.362157 
" style="fill:none;stroke:#2000ff;"/>
    <path clip-path="url(#p62cd143c4d)" d="M 316.144769 42.863084 
L 393.009217 77.754257 
" style="fill:none;stroke:#ff00ff;"/>
    <path clip-path="url(#p62cd143c4d)" d="M 316.144769 42.863084 
L 367.134137 49.814814 
" style="fill:none;stroke:#0000ff;"/>
    <path clip-path="url(#p62cd143c4d)" d="M 311.253995 238.083778 
L 253.052384 213.124831 
" style="fill:none;stroke:#6600ff;"/>
    <path clip-path="url(#p62cd143c4d)" d="M 311.253995 238.083778 
L 305.792781 138.362157 
" style="fill:none;stroke:#0000ff;"/>
    <path clip-path="url(#p62cd143c4d)" d="M 311.253995 238.083778 
L 183.465848 242.367703 
" style="fill:none;stroke:#0000ff;"/>
    <path clip-path="url(#p62cd143c4d)" d="M 122.95797 171.253866 
L 253.052384 213.124831 
" style="fill:none;stroke:#0000ff;"/>
    <path clip-path="url(#p62cd143c4d)" d="M 122.95797 171.253866 
L 169.49386 139.249354 
" style="fill:none;stroke:#8000ff;"/>
    <path clip-path="url(#p62cd143c4d)" d="M 253.052384 213.124831 
L 169.49386 139.249354 
" style="fill:none;stroke:#ff00ff;"/>
    <path clip-path="url(#p62cd143c4d)" d="M 253.052384 213.124831 
L 305.792781 138.362157 
" style="fill:none;stroke:#0000ff;"/>
    <path clip-path="url(#p62cd143c4d)" d="M 253.052384 213.124831 
L 238.579186 270.605869 
" style="fill:none;stroke:#ff00ff;"/>
    <path clip-path="url(#p62cd143c4d)" d="M 253.052384 213.124831 
L 183.465848 242.367703 
" style="fill:none;stroke:#0000ff;"/>
    <path clip-path="url(#p62cd143c4d)" d="M 20.945455 192.962402 
L 169.49386 139.249354 
" style="fill:none;stroke:#0000ff;"/>
    <path clip-path="url(#p62cd143c4d)" d="M 20.945455 192.962402 
L 134.131471 207.241983 
" style="fill:none;stroke:#0000ff;"/>
    <path clip-path="url(#p62cd143c4d)" d="M 190.252771 40.116024 
L 169.49386 139.249354 
" style="fill:none;stroke:#5500ff;"/>
    <path clip-path="url(#p62cd143c4d)" d="M 111.603412 329.890909 
L 183.465848 242.367703 
" style="fill:none;stroke:#0000ff;"/>
    <path clip-path="url(#p62cd143c4d)" d="M 169.49386 139.249354 
L 305.792781 138.362157 
" style="fill:none;stroke:#8000ff;"/>
    <path clip-path="url(#p62cd143c4d)" d="M 169.49386 139.249354 
L 112.40507 102.663044 
" style="fill:none;stroke:#2000ff;"/>
    <path clip-path="url(#p62cd143c4d)" d="M 169.49386 139.249354 
L 183.465848 242.367703 
" style="fill:none;stroke:#0000ff;"/>
    <path clip-path="url(#p62cd143c4d)" d="M 169.49386 139.249354 
L 134.131471 207.241983 
" style="fill:none;stroke:#0000ff;"/>
    <path clip-path="url(#p62cd143c4d)" d="M 169.49386 139.249354 
L 44.315994 63.545979 
" style="fill:none;stroke:#0000ff;"/>
    <path clip-path="url(#p62cd143c4d)" d="M 305.792781 138.362157 
L 415.831209 121.613374 
" style="fill:none;stroke:#0000ff;"/>
    <path clip-path="url(#p62cd143c4d)" d="M 305.792781 138.362157 
L 393.009217 77.754257 
" style="fill:none;stroke:#0000ff;"/>
    <path clip-path="url(#p62cd143c4d)" d="M 305.792781 138.362157 
L 367.134137 49.814814 
" style="fill:none;stroke:#0000ff;"/>
    <path clip-path="url(#p62cd143c4d)" d="M 238.579186 270.605869 
L 183.465848 242.367703 
" style="fill:none;stroke:#0000ff;"/>
    <path clip-path="url(#p62cd143c4d)" d="M 112.40507 102.663044 
L 44.315994 63.545979 
" style="fill:none;stroke:#2700ff;"/>
    <path clip-path="url(#p62cd143c4d)" d="M 393.009217 77.754257 
L 367.134137 49.814814 
" style="fill:none;stroke:#3300ff;"/>
   </g>
   <g id="PathCollection_1">
    <defs>
     <path d="M 0 8.660254 
C 2.296726 8.660254 4.499694 7.747755 6.123724 6.123724 
C 7.747755 4.499694 8.660254 2.296726 8.660254 0 
C 8.660254 -2.296726 7.747755 -4.499694 6.123724 -6.123724 
C 4.499694 -7.747755 2.296726 -8.660254 0 -8.660254 
C -2.296726 -8.660254 -4.499694 -7.747755 -6.123724 -6.123724 
C -7.747755 -4.499694 -8.660254 -2.296726 -8.660254 0 
C -8.660254 2.296726 -7.747755 4.499694 -6.123724 6.123724 
C -4.499694 7.747755 -2.296726 8.660254 0 8.660254 
z
" id="C0_0_7e7359eda8"/>
    </defs>
    <g clip-path="url(#p62cd143c4d)">
     <use style="fill:#3900ff;stroke:#3900ff;" x="361.065234" xlink:href="#C0_0_7e7359eda8" y="218.323139"/>
    </g>
    <g clip-path="url(#p62cd143c4d)">
     <use style="fill:#3900ff;stroke:#3900ff;" x="244.644837" xlink:href="#C0_0_7e7359eda8" y="184.307783"/>
    </g>
    <g clip-path="url(#p62cd143c4d)">
     <use style="fill:#ff00ff;stroke:#ff00ff;" x="370.529482" xlink:href="#C0_0_7e7359eda8" y="134.337947"/>
    </g>
    <g clip-path="url(#p62cd143c4d)">
     <use style="fill:#8000ff;stroke:#8000ff;" x="439.854545" xlink:href="#C0_0_7e7359eda8" y="160.350344"/>
    </g>
    <g clip-path="url(#p62cd143c4d)">
     <use style="fill:#3500ff;stroke:#3500ff;" x="295.647049" xlink:href="#C0_0_7e7359eda8" y="190.42901"/>
    </g>
    <g clip-path="url(#p62cd143c4d)">
     <use style="fill:#0d00ff;stroke:#0d00ff;" x="380.441842" xlink:href="#C0_0_7e7359eda8" y="197.690788"/>
    </g>
    <g clip-path="url(#p62cd143c4d)">
     <use style="fill:#2400ff;stroke:#2400ff;" x="415.232514" xlink:href="#C0_0_7e7359eda8" y="282.312698"/>
    </g>
    <g clip-path="url(#p62cd143c4d)">
     <use style="fill:#0e00ff;stroke:#0e00ff;" x="273.201484" xlink:href="#C0_0_7e7359eda8" y="81.242639"/>
    </g>
    <g clip-path="url(#p62cd143c4d)">
     <use style="fill:#7100ff;stroke:#7100ff;" x="208.17184" xlink:href="#C0_0_7e7359eda8" y="89.479465"/>
    </g>
    <g clip-path="url(#p62cd143c4d)">
     <use style="fill:#3900ff;stroke:#3900ff;" x="259.304396" xlink:href="#C0_0_7e7359eda8" y="138.604413"/>
    </g>
    <g clip-path="url(#p62cd143c4d)">
     <use style="fill:#3900ff;stroke:#3900ff;" x="21.486885" xlink:href="#C0_0_7e7359eda8" y="115.681523"/>
    </g>
    <g clip-path="url(#p62cd143c4d)">
     <use style="fill:#6200ff;stroke:#6200ff;" x="181.097065" xlink:href="#C0_0_7e7359eda8" y="201.462288"/>
    </g>
    <g clip-path="url(#p62cd143c4d)">
     <use style="fill:#3d00ff;stroke:#3d00ff;" x="334.228847" xlink:href="#C0_0_7e7359eda8" y="130.25957"/>
    </g>
    <g clip-path="url(#p62cd143c4d)">
     <use style="fill:#8000ff;stroke:#8000ff;" x="195.818674" xlink:href="#C0_0_7e7359eda8" y="87.095155"/>
    </g>
    <g clip-path="url(#p62cd143c4d)">
     <use style="fill:#5e00ff;stroke:#5e00ff;" x="138.401767" xlink:href="#C0_0_7e7359eda8" y="63.91504"/>
    </g>
    <g clip-path="url(#p62cd143c4d)">
     <use style="fill:#5500ff;stroke:#5500ff;" x="387.810377" xlink:href="#C0_0_7e7359eda8" y="170.573375"/>
    </g>
    <g clip-path="url(#p62cd143c4d)">
     <use style="fill:#6600ff;stroke:#6600ff;" x="316.144769" xlink:href="#C0_0_7e7359eda8" y="42.863084"/>
    </g>
    <g clip-path="url(#p62cd143c4d)">
     <use style="fill:#1000ff;stroke:#1000ff;" x="311.253995" xlink:href="#C0_0_7e7359eda8" y="238.083778"/>
    </g>
    <g clip-path="url(#p62cd143c4d)">
     <use style="fill:#8000ff;stroke:#8000ff;" x="266.903824" xlink:href="#C0_0_7e7359eda8" y="15.709091"/>
    </g>
    <g clip-path="url(#p62cd143c4d)">
     <use style="fill:#bf00ff;stroke:#bf00ff;" x="122.95797" xlink:href="#C0_0_7e7359eda8" y="171.253866"/>
    </g>
    <g clip-path="url(#p62cd143c4d)">
     <use style="fill:#3600ff;stroke:#3600ff;" x="253.052384" xlink:href="#C0_0_7e7359eda8" y="213.124831"/>
    </g>
    <g clip-path="url(#p62cd143c4d)">
     <use style="fill:#8000ff;stroke:#8000ff;" x="20.945455" xlink:href="#C0_0_7e7359eda8" y="192.962402"/>
    </g>
    <g clip-path="url(#p62cd143c4d)">
     <use style="fill:#5500ff;stroke:#5500ff;" x="190.252771" xlink:href="#C0_0_7e7359eda8" y="40.116024"/>
    </g>
    <g clip-path="url(#p62cd143c4d)">
     <use style="fill:#0000ff;stroke:#0000ff;" x="111.603412" xlink:href="#C0_0_7e7359eda8" y="329.890909"/>
    </g>
    <g clip-path="url(#p62cd143c4d)">
     <use style="fill:#6200ff;stroke:#6200ff;" x="169.49386" xlink:href="#C0_0_7e7359eda8" y="139.249354"/>
    </g>
    <g clip-path="url(#p62cd143c4d)">
     <use style="fill:#6100ff;stroke:#6100ff;" x="305.792781" xlink:href="#C0_0_7e7359eda8" y="138.362157"/>
    </g>
    <g clip-path="url(#p62cd143c4d)">
     <use style="fill:#8000ff;stroke:#8000ff;" x="195.815854" xlink:href="#C0_0_7e7359eda8" y="236.058586"/>
    </g>
    <g clip-path="url(#p62cd143c4d)">
     <use style="fill:#8000ff;stroke:#8000ff;" x="238.579186" xlink:href="#C0_0_7e7359eda8" y="270.605869"/>
    </g>
    <g clip-path="url(#p62cd143c4d)">
     <use style="fill:#4b00ff;stroke:#4b00ff;" x="112.40507" xlink:href="#C0_0_7e7359eda8" y="102.663044"/>
    </g>
    <g clip-path="url(#p62cd143c4d)">
     <use style="fill:#3900ff;stroke:#3900ff;" x="183.465848" xlink:href="#C0_0_7e7359eda8" y="242.367703"/>
    </g>
    <g clip-path="url(#p62cd143c4d)">
     <use style="fill:#3300ff;stroke:#3300ff;" x="415.831209" xlink:href="#C0_0_7e7359eda8" y="121.613374"/>
    </g>
    <g clip-path="url(#p62cd143c4d)">
     <use style="fill:#0000ff;stroke:#0000ff;" x="321.247685" xlink:href="#C0_0_7e7359eda8" y="315.113533"/>
    </g>
    <g clip-path="url(#p62cd143c4d)">
     <use style="fill:#0000ff;stroke:#0000ff;" x="307.821937" xlink:href="#C0_0_7e7359eda8" y="239.282204"/>
    </g>
    <g clip-path="url(#p62cd143c4d)">
     <use style="fill:#8000ff;stroke:#8000ff;" x="324.639815" xlink:href="#C0_0_7e7359eda8" y="232.358889"/>
    </g>
    <g clip-path="url(#p62cd143c4d)">
     <use style="fill:#9900ff;stroke:#9900ff;" x="393.009217" xlink:href="#C0_0_7e7359eda8" y="77.754257"/>
    </g>
    <g clip-path="url(#p62cd143c4d)">
     <use style="fill:#9f00ff;stroke:#9f00ff;" x="134.131471" xlink:href="#C0_0_7e7359eda8" y="207.241983"/>
    </g>
    <g clip-path="url(#p62cd143c4d)">
     <use style="fill:#0000ff;stroke:#0000ff;" x="44.315994" xlink:href="#C0_0_7e7359eda8" y="63.545979"/>
    </g>
    <g clip-path="url(#p62cd143c4d)">
     <use style="fill:#cc00ff;stroke:#cc00ff;" x="367.134137" xlink:href="#C0_0_7e7359eda8" y="49.814814"/>
    </g>
    <g clip-path="url(#p62cd143c4d)">
     <use style="fill:#8000ff;stroke:#8000ff;" x="375.173433" xlink:href="#C0_0_7e7359eda8" y="175.372123"/>
    </g>
   </g>
   <g id="text_1">
    <g clip-path="url(#p62cd143c4d)">
     <!-- alexandre -->
     <defs>
      <path d="M 34.28125 27.484375 
Q 23.390625 27.484375 19.1875 25 
Q 14.984375 22.515625 14.984375 16.5 
Q 14.984375 11.71875 18.140625 8.90625 
Q 21.296875 6.109375 26.703125 6.109375 
Q 34.1875 6.109375 38.703125 11.40625 
Q 43.21875 16.703125 43.21875 25.484375 
L 43.21875 27.484375 
z
M 52.203125 31.203125 
L 52.203125 0 
L 43.21875 0 
L 43.21875 8.296875 
Q 40.140625 3.328125 35.546875 0.953125 
Q 30.953125 -1.421875 24.3125 -1.421875 
Q 15.921875 -1.421875 10.953125 3.296875 
Q 6 8.015625 6 15.921875 
Q 6 25.140625 12.171875 29.828125 
Q 18.359375 34.515625 30.609375 34.515625 
L 43.21875 34.515625 
L 43.21875 35.40625 
Q 43.21875 41.609375 39.140625 45 
Q 35.0625 48.390625 27.6875 48.390625 
Q 23 48.390625 18.546875 47.265625 
Q 14.109375 46.140625 10.015625 43.890625 
L 10.015625 52.203125 
Q 14.9375 54.109375 19.578125 55.046875 
Q 24.21875 56 28.609375 56 
Q 40.484375 56 46.34375 49.84375 
Q 52.203125 43.703125 52.203125 31.203125 
z
" id="DejaVuSans-97"/>
      <path d="M 9.421875 75.984375 
L 18.40625 75.984375 
L 18.40625 0 
L 9.421875 0 
z
" id="DejaVuSans-108"/>
      <path d="M 56.203125 29.59375 
L 56.203125 25.203125 
L 14.890625 25.203125 
Q 15.484375 15.921875 20.484375 11.0625 
Q 25.484375 6.203125 34.421875 6.203125 
Q 39.59375 6.203125 44.453125 7.46875 
Q 49.3125 8.734375 54.109375 11.28125 
L 54.109375 2.78125 
Q 49.265625 0.734375 44.1875 -0.34375 
Q 39.109375 -1.421875 33.890625 -1.421875 
Q 20.796875 -1.421875 13.15625 6.1875 
Q 5.515625 13.8125 5.515625 26.8125 
Q 5.515625 40.234375 12.765625 48.109375 
Q 20.015625 56 32.328125 56 
Q 43.359375 56 49.78125 48.890625 
Q 56.203125 41.796875 56.203125 29.59375 
z
M 47.21875 32.234375 
Q 47.125 39.59375 43.09375 43.984375 
Q 39.0625 48.390625 32.421875 48.390625 
Q 24.90625 48.390625 20.390625 44.140625 
Q 15.875 39.890625 15.1875 32.171875 
z
" id="DejaVuSans-101"/>
      <path d="M 54.890625 54.6875 
L 35.109375 28.078125 
L 55.90625 0 
L 45.3125 0 
L 29.390625 21.484375 
L 13.484375 0 
L 2.875 0 
L 24.125 28.609375 
L 4.6875 54.6875 
L 15.28125 54.6875 
L 29.78125 35.203125 
L 44.28125 54.6875 
z
" id="DejaVuSans-120"/>
      <path d="M 54.890625 33.015625 
L 54.890625 0 
L 45.90625 0 
L 45.90625 32.71875 
Q 45.90625 40.484375 42.875 44.328125 
Q 39.84375 48.1875 33.796875 48.1875 
Q 26.515625 48.1875 22.3125 43.546875 
Q 18.109375 38.921875 18.109375 30.90625 
L 18.109375 0 
L 9.078125 0 
L 9.078125 54.6875 
L 18.109375 54.6875 
L 18.109375 46.1875 
Q 21.34375 51.125 25.703125 53.5625 
Q 30.078125 56 35.796875 56 
Q 45.21875 56 50.046875 50.171875 
Q 54.890625 44.34375 54.890625 33.015625 
z
" id="DejaVuSans-110"/>
      <path d="M 45.40625 46.390625 
L 45.40625 75.984375 
L 54.390625 75.984375 
L 54.390625 0 
L 45.40625 0 
L 45.40625 8.203125 
Q 42.578125 3.328125 38.25 0.953125 
Q 33.9375 -1.421875 27.875 -1.421875 
Q 17.96875 -1.421875 11.734375 6.484375 
Q 5.515625 14.40625 5.515625 27.296875 
Q 5.515625 40.1875 11.734375 48.09375 
Q 17.96875 56 27.875 56 
Q 33.9375 56 38.25 53.625 
Q 42.578125 51.265625 45.40625 46.390625 
z
M 14.796875 27.296875 
Q 14.796875 17.390625 18.875 11.75 
Q 22.953125 6.109375 30.078125 6.109375 
Q 37.203125 6.109375 41.296875 11.75 
Q 45.40625 17.390625 45.40625 27.296875 
Q 45.40625 37.203125 41.296875 42.84375 
Q 37.203125 48.484375 30.078125 48.484375 
Q 22.953125 48.484375 18.875 42.84375 
Q 14.796875 37.203125 14.796875 27.296875 
z
" id="DejaVuSans-100"/>
      <path d="M 41.109375 46.296875 
Q 39.59375 47.171875 37.8125 47.578125 
Q 36.03125 48 33.890625 48 
Q 26.265625 48 22.1875 43.046875 
Q 18.109375 38.09375 18.109375 28.8125 
L 18.109375 0 
L 9.078125 0 
L 9.078125 54.6875 
L 18.109375 54.6875 
L 18.109375 46.1875 
Q 20.953125 51.171875 25.484375 53.578125 
Q 30.03125 56 36.53125 56 
Q 37.453125 56 38.578125 55.875 
Q 39.703125 55.765625 41.0625 55.515625 
z
" id="DejaVuSans-114"/>
     </defs>
     <g transform="translate(331.271484 221.634389)scale(0.12 -0.12)">
      <use xlink:href="#DejaVuSans-97"/>
      <use x="61.279297" xlink:href="#DejaVuSans-108"/>
      <use x="89.0625" xlink:href="#DejaVuSans-101"/>
      <use x="148.835938" xlink:href="#DejaVuSans-120"/>
      <use x="208.015625" xlink:href="#DejaVuSans-97"/>
      <use x="269.294922" xlink:href="#DejaVuSans-110"/>
      <use x="332.673828" xlink:href="#DejaVuSans-100"/>
      <use x="396.150391" xlink:href="#DejaVuSans-114"/>
      <use x="435.013672" xlink:href="#DejaVuSans-101"/>
     </g>
    </g>
   </g>
   <g id="text_2">
    <g clip-path="url(#p62cd143c4d)">
     <!-- dabrovine -->
     <defs>
      <path d="M 48.6875 27.296875 
Q 48.6875 37.203125 44.609375 42.84375 
Q 40.53125 48.484375 33.40625 48.484375 
Q 26.265625 48.484375 22.1875 42.84375 
Q 18.109375 37.203125 18.109375 27.296875 
Q 18.109375 17.390625 22.1875 11.75 
Q 26.265625 6.109375 33.40625 6.109375 
Q 40.53125 6.109375 44.609375 11.75 
Q 48.6875 17.390625 48.6875 27.296875 
z
M 18.109375 46.390625 
Q 20.953125 51.265625 25.265625 53.625 
Q 29.59375 56 35.59375 56 
Q 45.5625 56 51.78125 48.09375 
Q 58.015625 40.1875 58.015625 27.296875 
Q 58.015625 14.40625 51.78125 6.484375 
Q 45.5625 -1.421875 35.59375 -1.421875 
Q 29.59375 -1.421875 25.265625 0.953125 
Q 20.953125 3.328125 18.109375 8.203125 
L 18.109375 0 
L 9.078125 0 
L 9.078125 75.984375 
L 18.109375 75.984375 
z
" id="DejaVuSans-98"/>
      <path d="M 30.609375 48.390625 
Q 23.390625 48.390625 19.1875 42.75 
Q 14.984375 37.109375 14.984375 27.296875 
Q 14.984375 17.484375 19.15625 11.84375 
Q 23.34375 6.203125 30.609375 6.203125 
Q 37.796875 6.203125 41.984375 11.859375 
Q 46.1875 17.53125 46.1875 27.296875 
Q 46.1875 37.015625 41.984375 42.703125 
Q 37.796875 48.390625 30.609375 48.390625 
z
M 30.609375 56 
Q 42.328125 56 49.015625 48.375 
Q 55.71875 40.765625 55.71875 27.296875 
Q 55.71875 13.875 49.015625 6.21875 
Q 42.328125 -1.421875 30.609375 -1.421875 
Q 18.84375 -1.421875 12.171875 6.21875 
Q 5.515625 13.875 5.515625 27.296875 
Q 5.515625 40.765625 12.171875 48.375 
Q 18.84375 56 30.609375 56 
z
" id="DejaVuSans-111"/>
      <path d="M 2.984375 54.6875 
L 12.5 54.6875 
L 29.59375 8.796875 
L 46.6875 54.6875 
L 56.203125 54.6875 
L 35.6875 0 
L 23.484375 0 
z
" id="DejaVuSans-118"/>
      <path d="M 9.421875 54.6875 
L 18.40625 54.6875 
L 18.40625 0 
L 9.421875 0 
z
M 9.421875 75.984375 
L 18.40625 75.984375 
L 18.40625 64.59375 
L 9.421875 64.59375 
z
" id="DejaVuSans-105"/>
     </defs>
     <g transform="translate(214.634525 187.619033)scale(0.12 -0.12)">
      <use xlink:href="#DejaVuSans-100"/>
      <use x="63.476562" xlink:href="#DejaVuSans-97"/>
      <use x="124.755859" xlink:href="#DejaVuSans-98"/>
      <use x="188.232422" xlink:href="#DejaVuSans-114"/>
      <use x="227.095703" xlink:href="#DejaVuSans-111"/>
      <use x="288.277344" xlink:href="#DejaVuSans-118"/>
      <use x="347.457031" xlink:href="#DejaVuSans-105"/>
      <use x="375.240234" xlink:href="#DejaVuSans-110"/>
      <use x="438.619141" xlink:href="#DejaVuSans-101"/>
     </g>
    </g>
   </g>
   <g id="text_3">
    <g clip-path="url(#p62cd143c4d)">
     <!-- dmitri -->
     <defs>
      <path d="M 52 44.1875 
Q 55.375 50.25 60.0625 53.125 
Q 64.75 56 71.09375 56 
Q 79.640625 56 84.28125 50.015625 
Q 88.921875 44.046875 88.921875 33.015625 
L 88.921875 0 
L 79.890625 0 
L 79.890625 32.71875 
Q 79.890625 40.578125 77.09375 44.375 
Q 74.3125 48.1875 68.609375 48.1875 
Q 61.625 48.1875 57.5625 43.546875 
Q 53.515625 38.921875 53.515625 30.90625 
L 53.515625 0 
L 44.484375 0 
L 44.484375 32.71875 
Q 44.484375 40.625 41.703125 44.40625 
Q 38.921875 48.1875 33.109375 48.1875 
Q 26.21875 48.1875 22.15625 43.53125 
Q 18.109375 38.875 18.109375 30.90625 
L 18.109375 0 
L 9.078125 0 
L 9.078125 54.6875 
L 18.109375 54.6875 
L 18.109375 46.1875 
Q 21.1875 51.21875 25.484375 53.609375 
Q 29.78125 56 35.6875 56 
Q 41.65625 56 45.828125 52.96875 
Q 50 49.953125 52 44.1875 
z
" id="DejaVuSans-109"/>
      <path d="M 18.3125 70.21875 
L 18.3125 54.6875 
L 36.8125 54.6875 
L 36.8125 47.703125 
L 18.3125 47.703125 
L 18.3125 18.015625 
Q 18.3125 11.328125 20.140625 9.421875 
Q 21.96875 7.515625 27.59375 7.515625 
L 36.8125 7.515625 
L 36.8125 0 
L 27.59375 0 
Q 17.1875 0 13.234375 3.875 
Q 9.28125 7.765625 9.28125 18.015625 
L 9.28125 47.703125 
L 2.6875 47.703125 
L 2.6875 54.6875 
L 9.28125 54.6875 
L 9.28125 70.21875 
z
" id="DejaVuSans-116"/>
     </defs>
     <g transform="translate(352.723544 137.649197)scale(0.12 -0.12)">
      <use xlink:href="#DejaVuSans-100"/>
      <use x="63.476562" xlink:href="#DejaVuSans-109"/>
      <use x="160.888672" xlink:href="#DejaVuSans-105"/>
      <use x="188.671875" xlink:href="#DejaVuSans-116"/>
      <use x="227.880859" xlink:href="#DejaVuSans-114"/>
      <use x="268.994141" xlink:href="#DejaVuSans-105"/>
     </g>
    </g>
   </g>
   <g id="text_4">
    <g clip-path="url(#p62cd143c4d)">
     <!-- dourakine -->
     <defs>
      <path d="M 8.5 21.578125 
L 8.5 54.6875 
L 17.484375 54.6875 
L 17.484375 21.921875 
Q 17.484375 14.15625 20.5 10.265625 
Q 23.53125 6.390625 29.59375 6.390625 
Q 36.859375 6.390625 41.078125 11.03125 
Q 45.3125 15.671875 45.3125 23.6875 
L 45.3125 54.6875 
L 54.296875 54.6875 
L 54.296875 0 
L 45.3125 0 
L 45.3125 8.40625 
Q 42.046875 3.421875 37.71875 1 
Q 33.40625 -1.421875 27.6875 -1.421875 
Q 18.265625 -1.421875 13.375 4.4375 
Q 8.5 10.296875 8.5 21.578125 
z
M 31.109375 56 
z
" id="DejaVuSans-117"/>
      <path d="M 9.078125 75.984375 
L 18.109375 75.984375 
L 18.109375 31.109375 
L 44.921875 54.6875 
L 56.390625 54.6875 
L 27.390625 29.109375 
L 57.625 0 
L 45.90625 0 
L 18.109375 26.703125 
L 18.109375 0 
L 9.078125 0 
z
" id="DejaVuSans-107"/>
     </defs>
     <g transform="translate(409.79267 163.661594)scale(0.12 -0.12)">
      <use xlink:href="#DejaVuSans-100"/>
      <use x="63.476562" xlink:href="#DejaVuSans-111"/>
      <use x="124.658203" xlink:href="#DejaVuSans-117"/>
      <use x="188.037109" xlink:href="#DejaVuSans-114"/>
      <use x="229.150391" xlink:href="#DejaVuSans-97"/>
      <use x="290.429688" xlink:href="#DejaVuSans-107"/>
      <use x="348.339844" xlink:href="#DejaVuSans-105"/>
      <use x="376.123047" xlink:href="#DejaVuSans-110"/>
      <use x="439.501953" xlink:href="#DejaVuSans-101"/>
     </g>
    </g>
   </g>
   <g id="text_5">
    <g clip-path="url(#p62cd143c4d)">
     <!-- dérigny -->
     <defs>
      <path d="M 56.203125 29.59375 
L 56.203125 25.203125 
L 14.890625 25.203125 
Q 15.484375 15.921875 20.484375 11.0625 
Q 25.484375 6.203125 34.421875 6.203125 
Q 39.59375 6.203125 44.453125 7.46875 
Q 49.3125 8.734375 54.109375 11.28125 
L 54.109375 2.78125 
Q 49.265625 0.734375 44.1875 -0.34375 
Q 39.109375 -1.421875 33.890625 -1.421875 
Q 20.796875 -1.421875 13.15625 6.1875 
Q 5.515625 13.8125 5.515625 26.8125 
Q 5.515625 40.234375 12.765625 48.109375 
Q 20.015625 56 32.328125 56 
Q 43.359375 56 49.78125 48.890625 
Q 56.203125 41.796875 56.203125 29.59375 
z
M 47.21875 32.234375 
Q 47.125 39.59375 43.09375 43.984375 
Q 39.0625 48.390625 32.421875 48.390625 
Q 24.90625 48.390625 20.390625 44.140625 
Q 15.875 39.890625 15.1875 32.171875 
z
M 38.53125 79.984375 
L 48.25 79.984375 
L 32.34375 61.625 
L 24.859375 61.625 
z
" id="DejaVuSans-233"/>
      <path d="M 45.40625 27.984375 
Q 45.40625 37.75 41.375 43.109375 
Q 37.359375 48.484375 30.078125 48.484375 
Q 22.859375 48.484375 18.828125 43.109375 
Q 14.796875 37.75 14.796875 27.984375 
Q 14.796875 18.265625 18.828125 12.890625 
Q 22.859375 7.515625 30.078125 7.515625 
Q 37.359375 7.515625 41.375 12.890625 
Q 45.40625 18.265625 45.40625 27.984375 
z
M 54.390625 6.78125 
Q 54.390625 -7.171875 48.1875 -13.984375 
Q 42 -20.796875 29.203125 -20.796875 
Q 24.46875 -20.796875 20.265625 -20.09375 
Q 16.0625 -19.390625 12.109375 -17.921875 
L 12.109375 -9.1875 
Q 16.0625 -11.328125 19.921875 -12.34375 
Q 23.78125 -13.375 27.78125 -13.375 
Q 36.625 -13.375 41.015625 -8.765625 
Q 45.40625 -4.15625 45.40625 5.171875 
L 45.40625 9.625 
Q 42.625 4.78125 38.28125 2.390625 
Q 33.9375 0 27.875 0 
Q 17.828125 0 11.671875 7.65625 
Q 5.515625 15.328125 5.515625 27.984375 
Q 5.515625 40.671875 11.671875 48.328125 
Q 17.828125 56 27.875 56 
Q 33.9375 56 38.28125 53.609375 
Q 42.625 51.21875 45.40625 46.390625 
L 45.40625 54.6875 
L 54.390625 54.6875 
z
" id="DejaVuSans-103"/>
      <path d="M 32.171875 -5.078125 
Q 28.375 -14.84375 24.75 -17.8125 
Q 21.140625 -20.796875 15.09375 -20.796875 
L 7.90625 -20.796875 
L 7.90625 -13.28125 
L 13.1875 -13.28125 
Q 16.890625 -13.28125 18.9375 -11.515625 
Q 21 -9.765625 23.484375 -3.21875 
L 25.09375 0.875 
L 2.984375 54.6875 
L 12.5 54.6875 
L 29.59375 11.921875 
L 46.6875 54.6875 
L 56.203125 54.6875 
z
" id="DejaVuSans-121"/>
     </defs>
     <g transform="translate(272.849862 193.98026)scale(0.12 -0.12)">
      <use xlink:href="#DejaVuSans-100"/>
      <use x="63.476562" xlink:href="#DejaVuSans-233"/>
      <use x="125" xlink:href="#DejaVuSans-114"/>
      <use x="166.113281" xlink:href="#DejaVuSans-105"/>
      <use x="193.896484" xlink:href="#DejaVuSans-103"/>
      <use x="257.373047" xlink:href="#DejaVuSans-110"/>
      <use x="320.751953" xlink:href="#DejaVuSans-121"/>
     </g>
    </g>
   </g>
   <g id="text_6">
    <g clip-path="url(#p62cd143c4d)">
     <!-- elfy -->
     <defs>
      <path d="M 37.109375 75.984375 
L 37.109375 68.5 
L 28.515625 68.5 
Q 23.6875 68.5 21.796875 66.546875 
Q 19.921875 64.59375 19.921875 59.515625 
L 19.921875 54.6875 
L 34.71875 54.6875 
L 34.71875 47.703125 
L 19.921875 47.703125 
L 19.921875 0 
L 10.890625 0 
L 10.890625 47.703125 
L 2.296875 47.703125 
L 2.296875 54.6875 
L 10.890625 54.6875 
L 10.890625 58.5 
Q 10.890625 67.625 15.140625 71.796875 
Q 19.390625 75.984375 28.609375 75.984375 
z
" id="DejaVuSans-102"/>
     </defs>
     <g transform="translate(369.524655 201.002038)scale(0.12 -0.12)">
      <use xlink:href="#DejaVuSans-101"/>
      <use x="61.523438" xlink:href="#DejaVuSans-108"/>
      <use x="89.306641" xlink:href="#DejaVuSans-102"/>
      <use x="122.761719" xlink:href="#DejaVuSans-121"/>
     </g>
    </g>
   </g>
   <g id="text_7">
    <g clip-path="url(#p62cd143c4d)">
     <!-- france -->
     <defs>
      <path d="M 48.78125 52.59375 
L 48.78125 44.1875 
Q 44.96875 46.296875 41.140625 47.34375 
Q 37.3125 48.390625 33.40625 48.390625 
Q 24.65625 48.390625 19.8125 42.84375 
Q 14.984375 37.3125 14.984375 27.296875 
Q 14.984375 17.28125 19.8125 11.734375 
Q 24.65625 6.203125 33.40625 6.203125 
Q 37.3125 6.203125 41.140625 7.25 
Q 44.96875 8.296875 48.78125 10.40625 
L 48.78125 2.09375 
Q 45.015625 0.34375 40.984375 -0.53125 
Q 36.96875 -1.421875 32.421875 -1.421875 
Q 20.0625 -1.421875 12.78125 6.34375 
Q 5.515625 14.109375 5.515625 27.296875 
Q 5.515625 40.671875 12.859375 48.328125 
Q 20.21875 56 33.015625 56 
Q 37.15625 56 41.109375 55.140625 
Q 45.0625 54.296875 48.78125 52.59375 
z
" id="DejaVuSans-99"/>
     </defs>
     <g transform="translate(396.183452 285.623948)scale(0.12 -0.12)">
      <use xlink:href="#DejaVuSans-102"/>
      <use x="35.205078" xlink:href="#DejaVuSans-114"/>
      <use x="76.318359" xlink:href="#DejaVuSans-97"/>
      <use x="137.597656" xlink:href="#DejaVuSans-110"/>
      <use x="200.976562" xlink:href="#DejaVuSans-99"/>
      <use x="255.957031" xlink:href="#DejaVuSans-101"/>
     </g>
    </g>
   </g>
   <g id="text_8">
    <g clip-path="url(#p62cd143c4d)">
     <!-- français -->
     <defs>
      <path d="M 48.78125 52.59375 
L 48.78125 44.1875 
Q 44.96875 46.296875 41.140625 47.34375 
Q 37.3125 48.390625 33.40625 48.390625 
Q 24.65625 48.390625 19.8125 42.84375 
Q 14.984375 37.3125 14.984375 27.296875 
Q 14.984375 17.28125 19.8125 11.734375 
Q 24.65625 6.203125 33.40625 6.203125 
Q 37.3125 6.203125 41.140625 7.25 
Q 44.96875 8.296875 48.78125 10.40625 
L 48.78125 2.09375 
Q 45.015625 0.34375 40.984375 -0.53125 
Q 36.96875 -1.421875 32.421875 -1.421875 
Q 20.0625 -1.421875 12.78125 6.34375 
Q 5.515625 14.109375 5.515625 27.296875 
Q 5.515625 40.671875 12.859375 48.328125 
Q 20.21875 56 33.015625 56 
Q 37.15625 56 41.109375 55.140625 
Q 45.0625 54.296875 48.78125 52.59375 
z
M 36.109375 0 
Q 38.78125 -3.03125 40.09375 -5.59375 
Q 41.421875 -8.15625 41.421875 -10.5 
Q 41.421875 -14.84375 38.484375 -17.0625 
Q 35.5625 -19.28125 29.796875 -19.28125 
Q 27.5625 -19.28125 25.4375 -18.984375 
Q 23.3125 -18.703125 21.203125 -18.109375 
L 21.203125 -11.71875 
Q 22.875 -12.546875 24.671875 -12.90625 
Q 26.484375 -13.28125 28.78125 -13.28125 
Q 31.65625 -13.28125 33.125 -12.109375 
Q 34.59375 -10.9375 34.59375 -8.6875 
Q 34.59375 -7.234375 33.53125 -5.109375 
Q 32.484375 -2.984375 30.296875 0 
z
" id="DejaVuSans-231"/>
      <path d="M 44.28125 53.078125 
L 44.28125 44.578125 
Q 40.484375 46.53125 36.375 47.5 
Q 32.28125 48.484375 27.875 48.484375 
Q 21.1875 48.484375 17.84375 46.4375 
Q 14.5 44.390625 14.5 40.28125 
Q 14.5 37.15625 16.890625 35.375 
Q 19.28125 33.59375 26.515625 31.984375 
L 29.59375 31.296875 
Q 39.15625 29.25 43.1875 25.515625 
Q 47.21875 21.78125 47.21875 15.09375 
Q 47.21875 7.46875 41.1875 3.015625 
Q 35.15625 -1.421875 24.609375 -1.421875 
Q 20.21875 -1.421875 15.453125 -0.5625 
Q 10.6875 0.296875 5.421875 2 
L 5.421875 11.28125 
Q 10.40625 8.6875 15.234375 7.390625 
Q 20.0625 6.109375 24.8125 6.109375 
Q 31.15625 6.109375 34.5625 8.28125 
Q 37.984375 10.453125 37.984375 14.40625 
Q 37.984375 18.0625 35.515625 20.015625 
Q 33.0625 21.96875 24.703125 23.78125 
L 21.578125 24.515625 
Q 13.234375 26.265625 9.515625 29.90625 
Q 5.8125 33.546875 5.8125 39.890625 
Q 5.8125 47.609375 11.28125 51.796875 
Q 16.75 56 26.8125 56 
Q 31.78125 56 36.171875 55.265625 
Q 40.578125 54.546875 44.28125 53.078125 
z
" id="DejaVuSans-115"/>
     </defs>
     <g transform="translate(249.374922 84.553889)scale(0.12 -0.12)">
      <use xlink:href="#DejaVuSans-102"/>
      <use x="35.205078" xlink:href="#DejaVuSans-114"/>
      <use x="76.318359" xlink:href="#DejaVuSans-97"/>
      <use x="137.597656" xlink:href="#DejaVuSans-110"/>
      <use x="200.976562" xlink:href="#DejaVuSans-231"/>
      <use x="255.957031" xlink:href="#DejaVuSans-97"/>
      <use x="317.236328" xlink:href="#DejaVuSans-105"/>
      <use x="345.019531" xlink:href="#DejaVuSans-115"/>
     </g>
    </g>
   </g>
   <g id="text_9">
    <g clip-path="url(#p62cd143c4d)">
     <!-- gromiline -->
     <g transform="translate(180.02059 92.790715)scale(0.12 -0.12)">
      <use xlink:href="#DejaVuSans-103"/>
      <use x="63.476562" xlink:href="#DejaVuSans-114"/>
      <use x="102.339844" xlink:href="#DejaVuSans-111"/>
      <use x="163.521484" xlink:href="#DejaVuSans-109"/>
      <use x="260.933594" xlink:href="#DejaVuSans-105"/>
      <use x="288.716797" xlink:href="#DejaVuSans-108"/>
      <use x="316.5" xlink:href="#DejaVuSans-105"/>
      <use x="344.283203" xlink:href="#DejaVuSans-110"/>
      <use x="407.662109" xlink:href="#DejaVuSans-101"/>
     </g>
    </g>
   </g>
   <g id="text_10">
    <g clip-path="url(#p62cd143c4d)">
     <!-- général -->
     <g transform="translate(236.498771 142.155663)scale(0.12 -0.12)">
      <use xlink:href="#DejaVuSans-103"/>
      <use x="63.476562" xlink:href="#DejaVuSans-233"/>
      <use x="125" xlink:href="#DejaVuSans-110"/>
      <use x="188.378906" xlink:href="#DejaVuSans-233"/>
      <use x="249.902344" xlink:href="#DejaVuSans-114"/>
      <use x="291.015625" xlink:href="#DejaVuSans-97"/>
      <use x="352.294922" xlink:href="#DejaVuSans-108"/>
     </g>
    </g>
   </g>
   <g id="text_11">
    <g clip-path="url(#p62cd143c4d)">
     <!-- ispravnik -->
     <defs>
      <path d="M 18.109375 8.203125 
L 18.109375 -20.796875 
L 9.078125 -20.796875 
L 9.078125 54.6875 
L 18.109375 54.6875 
L 18.109375 46.390625 
Q 20.953125 51.265625 25.265625 53.625 
Q 29.59375 56 35.59375 56 
Q 45.5625 56 51.78125 48.09375 
Q 58.015625 40.1875 58.015625 27.296875 
Q 58.015625 14.40625 51.78125 6.484375 
Q 45.5625 -1.421875 35.59375 -1.421875 
Q 29.59375 -1.421875 25.265625 0.953125 
Q 20.953125 3.328125 18.109375 8.203125 
z
M 48.6875 27.296875 
Q 48.6875 37.203125 44.609375 42.84375 
Q 40.53125 48.484375 33.40625 48.484375 
Q 26.265625 48.484375 22.1875 42.84375 
Q 18.109375 37.203125 18.109375 27.296875 
Q 18.109375 17.390625 22.1875 11.75 
Q 26.265625 6.109375 33.40625 6.109375 
Q 40.53125 6.109375 44.609375 11.75 
Q 48.6875 17.390625 48.6875 27.296875 
z
" id="DejaVuSans-112"/>
     </defs>
     <g transform="translate(-5.753115 118.992773)scale(0.12 -0.12)">
      <use xlink:href="#DejaVuSans-105"/>
      <use x="27.783203" xlink:href="#DejaVuSans-115"/>
      <use x="79.882812" xlink:href="#DejaVuSans-112"/>
      <use x="143.359375" xlink:href="#DejaVuSans-114"/>
      <use x="184.472656" xlink:href="#DejaVuSans-97"/>
      <use x="245.751953" xlink:href="#DejaVuSans-118"/>
      <use x="304.931641" xlink:href="#DejaVuSans-110"/>
      <use x="368.310547" xlink:href="#DejaVuSans-105"/>
      <use x="396.09375" xlink:href="#DejaVuSans-107"/>
     </g>
    </g>
   </g>
   <g id="text_12">
    <g clip-path="url(#p62cd143c4d)">
     <!-- jackson -->
     <defs>
      <path d="M 9.421875 54.6875 
L 18.40625 54.6875 
L 18.40625 -0.984375 
Q 18.40625 -11.421875 14.421875 -16.109375 
Q 10.453125 -20.796875 1.609375 -20.796875 
L -1.8125 -20.796875 
L -1.8125 -13.1875 
L 0.59375 -13.1875 
Q 5.71875 -13.1875 7.5625 -10.8125 
Q 9.421875 -8.453125 9.421875 -0.984375 
z
M 9.421875 75.984375 
L 18.40625 75.984375 
L 18.40625 64.59375 
L 9.421875 64.59375 
z
" id="DejaVuSans-106"/>
     </defs>
     <g transform="translate(158.380502 204.773538)scale(0.12 -0.12)">
      <use xlink:href="#DejaVuSans-106"/>
      <use x="27.783203" xlink:href="#DejaVuSans-97"/>
      <use x="89.0625" xlink:href="#DejaVuSans-99"/>
      <use x="144.042969" xlink:href="#DejaVuSans-107"/>
      <use x="201.953125" xlink:href="#DejaVuSans-115"/>
      <use x="254.052734" xlink:href="#DejaVuSans-111"/>
      <use x="315.234375" xlink:href="#DejaVuSans-110"/>
     </g>
    </g>
   </g>
   <g id="text_13">
    <g clip-path="url(#p62cd143c4d)">
     <!-- jacques -->
     <defs>
      <path d="M 14.796875 27.296875 
Q 14.796875 17.390625 18.875 11.75 
Q 22.953125 6.109375 30.078125 6.109375 
Q 37.203125 6.109375 41.296875 11.75 
Q 45.40625 17.390625 45.40625 27.296875 
Q 45.40625 37.203125 41.296875 42.84375 
Q 37.203125 48.484375 30.078125 48.484375 
Q 22.953125 48.484375 18.875 42.84375 
Q 14.796875 37.203125 14.796875 27.296875 
z
M 45.40625 8.203125 
Q 42.578125 3.328125 38.25 0.953125 
Q 33.9375 -1.421875 27.875 -1.421875 
Q 17.96875 -1.421875 11.734375 6.484375 
Q 5.515625 14.40625 5.515625 27.296875 
Q 5.515625 40.1875 11.734375 48.09375 
Q 17.96875 56 27.875 56 
Q 33.9375 56 38.25 53.625 
Q 42.578125 51.265625 45.40625 46.390625 
L 45.40625 54.6875 
L 54.390625 54.6875 
L 54.390625 -20.796875 
L 45.40625 -20.796875 
z
" id="DejaVuSans-113"/>
     </defs>
     <g transform="translate(311.156972 133.57082)scale(0.12 -0.12)">
      <use xlink:href="#DejaVuSans-106"/>
      <use x="27.783203" xlink:href="#DejaVuSans-97"/>
      <use x="89.0625" xlink:href="#DejaVuSans-99"/>
      <use x="144.042969" xlink:href="#DejaVuSans-113"/>
      <use x="207.519531" xlink:href="#DejaVuSans-117"/>
      <use x="270.898438" xlink:href="#DejaVuSans-101"/>
      <use x="332.421875" xlink:href="#DejaVuSans-115"/>
     </g>
    </g>
   </g>
   <g id="text_14">
    <g clip-path="url(#p62cd143c4d)">
     <!-- loumigny -->
     <g transform="translate(168.003986 90.406405)scale(0.12 -0.12)">
      <use xlink:href="#DejaVuSans-108"/>
      <use x="27.783203" xlink:href="#DejaVuSans-111"/>
      <use x="88.964844" xlink:href="#DejaVuSans-117"/>
      <use x="152.34375" xlink:href="#DejaVuSans-109"/>
      <use x="249.755859" xlink:href="#DejaVuSans-105"/>
      <use x="277.539062" xlink:href="#DejaVuSans-103"/>
      <use x="341.015625" xlink:href="#DejaVuSans-110"/>
      <use x="404.394531" xlink:href="#DejaVuSans-121"/>
     </g>
    </g>
   </g>
   <g id="text_15">
    <g clip-path="url(#p62cd143c4d)">
     <!-- maria -->
     <g transform="translate(121.070205 67.22629)scale(0.12 -0.12)">
      <use xlink:href="#DejaVuSans-109"/>
      <use x="97.412109" xlink:href="#DejaVuSans-97"/>
      <use x="158.691406" xlink:href="#DejaVuSans-114"/>
      <use x="199.804688" xlink:href="#DejaVuSans-105"/>
      <use x="227.587891" xlink:href="#DejaVuSans-97"/>
     </g>
    </g>
   </g>
   <g id="text_16">
    <g clip-path="url(#p62cd143c4d)">
     <!-- michel -->
     <defs>
      <path d="M 54.890625 33.015625 
L 54.890625 0 
L 45.90625 0 
L 45.90625 32.71875 
Q 45.90625 40.484375 42.875 44.328125 
Q 39.84375 48.1875 33.796875 48.1875 
Q 26.515625 48.1875 22.3125 43.546875 
Q 18.109375 38.921875 18.109375 30.90625 
L 18.109375 0 
L 9.078125 0 
L 9.078125 75.984375 
L 18.109375 75.984375 
L 18.109375 46.1875 
Q 21.34375 51.125 25.703125 53.5625 
Q 30.078125 56 35.796875 56 
Q 45.21875 56 50.046875 50.171875 
Q 54.890625 44.34375 54.890625 33.015625 
z
" id="DejaVuSans-104"/>
     </defs>
     <g transform="translate(367.838814 173.884625)scale(0.12 -0.12)">
      <use xlink:href="#DejaVuSans-109"/>
      <use x="97.412109" xlink:href="#DejaVuSans-105"/>
      <use x="125.195312" xlink:href="#DejaVuSans-99"/>
      <use x="180.175781" xlink:href="#DejaVuSans-104"/>
      <use x="243.554688" xlink:href="#DejaVuSans-101"/>
      <use x="305.078125" xlink:href="#DejaVuSans-108"/>
     </g>
    </g>
   </g>
   <g id="text_17">
    <g clip-path="url(#p62cd143c4d)">
     <!-- mitineka -->
     <g transform="translate(290.073832 46.174334)scale(0.12 -0.12)">
      <use xlink:href="#DejaVuSans-109"/>
      <use x="97.412109" xlink:href="#DejaVuSans-105"/>
      <use x="125.195312" xlink:href="#DejaVuSans-116"/>
      <use x="164.404297" xlink:href="#DejaVuSans-105"/>
      <use x="192.1875" xlink:href="#DejaVuSans-110"/>
      <use x="255.566406" xlink:href="#DejaVuSans-101"/>
      <use x="317.089844" xlink:href="#DejaVuSans-107"/>
      <use x="373.25" xlink:href="#DejaVuSans-97"/>
     </g>
    </g>
   </g>
   <g id="text_18">
    <g clip-path="url(#p62cd143c4d)">
     <!-- moutier -->
     <g transform="translate(287.75837 241.395028)scale(0.12 -0.12)">
      <use xlink:href="#DejaVuSans-109"/>
      <use x="97.412109" xlink:href="#DejaVuSans-111"/>
      <use x="158.59375" xlink:href="#DejaVuSans-117"/>
      <use x="221.972656" xlink:href="#DejaVuSans-116"/>
      <use x="261.181641" xlink:href="#DejaVuSans-105"/>
      <use x="288.964844" xlink:href="#DejaVuSans-101"/>
      <use x="350.488281" xlink:href="#DejaVuSans-114"/>
     </g>
    </g>
   </g>
   <g id="text_19">
    <g clip-path="url(#p62cd143c4d)">
     <!-- natalia -->
     <g transform="translate(246.384762 19.020341)scale(0.12 -0.12)">
      <use xlink:href="#DejaVuSans-110"/>
      <use x="63.378906" xlink:href="#DejaVuSans-97"/>
      <use x="124.658203" xlink:href="#DejaVuSans-116"/>
      <use x="163.867188" xlink:href="#DejaVuSans-97"/>
      <use x="225.146484" xlink:href="#DejaVuSans-108"/>
      <use x="252.929688" xlink:href="#DejaVuSans-105"/>
      <use x="280.712891" xlink:href="#DejaVuSans-97"/>
     </g>
    </g>
   </g>
   <g id="text_20">
    <g clip-path="url(#p62cd143c4d)">
     <!-- natalie -->
     <g transform="translate(102.423907 174.565116)scale(0.12 -0.12)">
      <use xlink:href="#DejaVuSans-110"/>
      <use x="63.378906" xlink:href="#DejaVuSans-97"/>
      <use x="124.658203" xlink:href="#DejaVuSans-116"/>
      <use x="163.867188" xlink:href="#DejaVuSans-97"/>
      <use x="225.146484" xlink:href="#DejaVuSans-108"/>
      <use x="252.929688" xlink:href="#DejaVuSans-105"/>
      <use x="280.712891" xlink:href="#DejaVuSans-101"/>
     </g>
    </g>
   </g>
   <g id="text_21">
    <g clip-path="url(#p62cd143c4d)">
     <!-- natasha -->
     <g transform="translate(228.938947 216.436081)scale(0.12 -0.12)">
      <use xlink:href="#DejaVuSans-110"/>
      <use x="63.378906" xlink:href="#DejaVuSans-97"/>
      <use x="124.658203" xlink:href="#DejaVuSans-116"/>
      <use x="163.867188" xlink:href="#DejaVuSans-97"/>
      <use x="225.146484" xlink:href="#DejaVuSans-115"/>
      <use x="277.246094" xlink:href="#DejaVuSans-104"/>
      <use x="340.625" xlink:href="#DejaVuSans-97"/>
     </g>
    </g>
   </g>
   <g id="text_22">
    <g clip-path="url(#p62cd143c4d)">
     <!-- nikita -->
     <g transform="translate(4.305767 196.273652)scale(0.12 -0.12)">
      <use xlink:href="#DejaVuSans-110"/>
      <use x="63.378906" xlink:href="#DejaVuSans-105"/>
      <use x="91.162109" xlink:href="#DejaVuSans-107"/>
      <use x="149.072266" xlink:href="#DejaVuSans-105"/>
      <use x="176.855469" xlink:href="#DejaVuSans-116"/>
      <use x="216.064453" xlink:href="#DejaVuSans-97"/>
     </g>
    </g>
   </g>
   <g id="text_23">
    <g clip-path="url(#p62cd143c4d)">
     <!-- négrinski -->
     <g transform="translate(162.746521 43.667274)scale(0.12 -0.12)">
      <use xlink:href="#DejaVuSans-110"/>
      <use x="63.378906" xlink:href="#DejaVuSans-233"/>
      <use x="124.902344" xlink:href="#DejaVuSans-103"/>
      <use x="188.378906" xlink:href="#DejaVuSans-114"/>
      <use x="229.492188" xlink:href="#DejaVuSans-105"/>
      <use x="257.275391" xlink:href="#DejaVuSans-110"/>
      <use x="320.654297" xlink:href="#DejaVuSans-115"/>
      <use x="372.753906" xlink:href="#DejaVuSans-107"/>
      <use x="430.664062" xlink:href="#DejaVuSans-105"/>
     </g>
    </g>
   </g>
   <g id="text_24">
    <g clip-path="url(#p62cd143c4d)">
     <!-- pajarski -->
     <g transform="translate(88.040287 333.202159)scale(0.12 -0.12)">
      <use xlink:href="#DejaVuSans-112"/>
      <use x="63.476562" xlink:href="#DejaVuSans-97"/>
      <use x="124.755859" xlink:href="#DejaVuSans-106"/>
      <use x="152.539062" xlink:href="#DejaVuSans-97"/>
      <use x="213.818359" xlink:href="#DejaVuSans-114"/>
      <use x="254.931641" xlink:href="#DejaVuSans-115"/>
      <use x="307.03125" xlink:href="#DejaVuSans-107"/>
      <use x="364.941406" xlink:href="#DejaVuSans-105"/>
     </g>
    </g>
   </g>
   <g id="text_25">
    <g clip-path="url(#p62cd143c4d)">
     <!-- papofski -->
     <g transform="translate(144.148547 142.560604)scale(0.12 -0.12)">
      <use xlink:href="#DejaVuSans-112"/>
      <use x="63.476562" xlink:href="#DejaVuSans-97"/>
      <use x="124.755859" xlink:href="#DejaVuSans-112"/>
      <use x="188.232422" xlink:href="#DejaVuSans-111"/>
      <use x="249.414062" xlink:href="#DejaVuSans-102"/>
      <use x="284.619141" xlink:href="#DejaVuSans-115"/>
      <use x="336.71875" xlink:href="#DejaVuSans-107"/>
      <use x="394.628906" xlink:href="#DejaVuSans-105"/>
     </g>
    </g>
   </g>
   <g id="text_26">
    <g clip-path="url(#p62cd143c4d)">
     <!-- paul -->
     <g transform="translate(292.837469 141.673407)scale(0.12 -0.12)">
      <use xlink:href="#DejaVuSans-112"/>
      <use x="63.476562" xlink:href="#DejaVuSans-97"/>
      <use x="124.755859" xlink:href="#DejaVuSans-117"/>
      <use x="188.134766" xlink:href="#DejaVuSans-108"/>
     </g>
    </g>
   </g>
   <g id="text_27">
    <g clip-path="url(#p62cd143c4d)">
     <!-- pologne -->
     <g transform="translate(171.693979 239.369836)scale(0.12 -0.12)">
      <use xlink:href="#DejaVuSans-112"/>
      <use x="63.476562" xlink:href="#DejaVuSans-111"/>
      <use x="124.658203" xlink:href="#DejaVuSans-108"/>
      <use x="152.441406" xlink:href="#DejaVuSans-111"/>
      <use x="213.623047" xlink:href="#DejaVuSans-103"/>
      <use x="277.099609" xlink:href="#DejaVuSans-110"/>
      <use x="340.478516" xlink:href="#DejaVuSans-101"/>
     </g>
    </g>
   </g>
   <g id="text_28">
    <g clip-path="url(#p62cd143c4d)">
     <!-- polonais -->
     <g transform="translate(213.488874 273.917119)scale(0.12 -0.12)">
      <use xlink:href="#DejaVuSans-112"/>
      <use x="63.476562" xlink:href="#DejaVuSans-111"/>
      <use x="124.658203" xlink:href="#DejaVuSans-108"/>
      <use x="152.441406" xlink:href="#DejaVuSans-111"/>
      <use x="213.623047" xlink:href="#DejaVuSans-110"/>
      <use x="277.001953" xlink:href="#DejaVuSans-97"/>
      <use x="338.28125" xlink:href="#DejaVuSans-105"/>
      <use x="366.064453" xlink:href="#DejaVuSans-115"/>
     </g>
    </g>
   </g>
   <g id="text_29">
    <g clip-path="url(#p62cd143c4d)">
     <!-- pétrovna -->
     <g transform="translate(85.518507 106.214294)scale(0.12 -0.12)">
      <use xlink:href="#DejaVuSans-112"/>
      <use x="63.476562" xlink:href="#DejaVuSans-233"/>
      <use x="125" xlink:href="#DejaVuSans-116"/>
      <use x="164.208984" xlink:href="#DejaVuSans-114"/>
      <use x="203.072266" xlink:href="#DejaVuSans-111"/>
      <use x="264.253906" xlink:href="#DejaVuSans-118"/>
      <use x="323.433594" xlink:href="#DejaVuSans-110"/>
      <use x="386.8125" xlink:href="#DejaVuSans-97"/>
     </g>
    </g>
   </g>
   <g id="text_30">
    <g clip-path="url(#p62cd143c4d)">
     <!-- romane -->
     <g transform="translate(160.44741 245.678953)scale(0.12 -0.12)">
      <use xlink:href="#DejaVuSans-114"/>
      <use x="38.863281" xlink:href="#DejaVuSans-111"/>
      <use x="100.044922" xlink:href="#DejaVuSans-109"/>
      <use x="197.457031" xlink:href="#DejaVuSans-97"/>
      <use x="258.736328" xlink:href="#DejaVuSans-110"/>
      <use x="322.115234" xlink:href="#DejaVuSans-101"/>
     </g>
    </g>
   </g>
   <g id="text_31">
    <g clip-path="url(#p62cd143c4d)">
     <!-- russes -->
     <g transform="translate(396.493396 124.924624)scale(0.12 -0.12)">
      <use xlink:href="#DejaVuSans-114"/>
      <use x="41.113281" xlink:href="#DejaVuSans-117"/>
      <use x="104.492188" xlink:href="#DejaVuSans-115"/>
      <use x="156.591797" xlink:href="#DejaVuSans-115"/>
      <use x="208.691406" xlink:href="#DejaVuSans-101"/>
      <use x="270.214844" xlink:href="#DejaVuSans-115"/>
     </g>
    </g>
   </g>
   <g id="text_32">
    <g clip-path="url(#p62cd143c4d)">
     <!-- russie -->
     <g transform="translate(303.368623 318.424783)scale(0.12 -0.12)">
      <use xlink:href="#DejaVuSans-114"/>
      <use x="41.113281" xlink:href="#DejaVuSans-117"/>
      <use x="104.492188" xlink:href="#DejaVuSans-115"/>
      <use x="156.591797" xlink:href="#DejaVuSans-115"/>
      <use x="208.691406" xlink:href="#DejaVuSans-105"/>
      <use x="236.474609" xlink:href="#DejaVuSans-101"/>
     </g>
    </g>
   </g>
   <g id="text_33">
    <g clip-path="url(#p62cd143c4d)">
     <!-- sibérie -->
     <g transform="translate(287.703187 242.593454)scale(0.12 -0.12)">
      <use xlink:href="#DejaVuSans-115"/>
      <use x="52.099609" xlink:href="#DejaVuSans-105"/>
      <use x="79.882812" xlink:href="#DejaVuSans-98"/>
      <use x="143.359375" xlink:href="#DejaVuSans-233"/>
      <use x="204.882812" xlink:href="#DejaVuSans-114"/>
      <use x="245.996094" xlink:href="#DejaVuSans-105"/>
      <use x="273.779297" xlink:href="#DejaVuSans-101"/>
     </g>
    </g>
   </g>
   <g id="text_34">
    <g clip-path="url(#p62cd143c4d)">
     <!-- smolensk -->
     <g transform="translate(296.237315 235.670139)scale(0.12 -0.12)">
      <use xlink:href="#DejaVuSans-115"/>
      <use x="52.099609" xlink:href="#DejaVuSans-109"/>
      <use x="149.511719" xlink:href="#DejaVuSans-111"/>
      <use x="210.693359" xlink:href="#DejaVuSans-108"/>
      <use x="238.476562" xlink:href="#DejaVuSans-101"/>
      <use x="300" xlink:href="#DejaVuSans-110"/>
      <use x="363.378906" xlink:href="#DejaVuSans-115"/>
      <use x="415.478516" xlink:href="#DejaVuSans-107"/>
     </g>
    </g>
   </g>
   <g id="text_35">
    <g clip-path="url(#p62cd143c4d)">
     <!-- sonushka -->
     <g transform="translate(364.632967 81.065507)scale(0.12 -0.12)">
      <use xlink:href="#DejaVuSans-115"/>
      <use x="52.099609" xlink:href="#DejaVuSans-111"/>
      <use x="113.28125" xlink:href="#DejaVuSans-110"/>
      <use x="176.660156" xlink:href="#DejaVuSans-117"/>
      <use x="240.039062" xlink:href="#DejaVuSans-115"/>
      <use x="292.138672" xlink:href="#DejaVuSans-104"/>
      <use x="355.517578" xlink:href="#DejaVuSans-107"/>
      <use x="411.677734" xlink:href="#DejaVuSans-97"/>
     </g>
    </g>
   </g>
   <g id="text_36">
    <g clip-path="url(#p62cd143c4d)">
     <!-- vassili -->
     <g transform="translate(115.651471 210.553233)scale(0.12 -0.12)">
      <use xlink:href="#DejaVuSans-118"/>
      <use x="59.179688" xlink:href="#DejaVuSans-97"/>
      <use x="120.458984" xlink:href="#DejaVuSans-115"/>
      <use x="172.558594" xlink:href="#DejaVuSans-115"/>
      <use x="224.658203" xlink:href="#DejaVuSans-105"/>
      <use x="252.441406" xlink:href="#DejaVuSans-108"/>
      <use x="280.224609" xlink:href="#DejaVuSans-105"/>
     </g>
    </g>
   </g>
   <g id="text_37">
    <g clip-path="url(#p62cd143c4d)">
     <!-- vassiliévitche -->
     <g transform="translate(3.780369 66.857229)scale(0.12 -0.12)">
      <use xlink:href="#DejaVuSans-118"/>
      <use x="59.179688" xlink:href="#DejaVuSans-97"/>
      <use x="120.458984" xlink:href="#DejaVuSans-115"/>
      <use x="172.558594" xlink:href="#DejaVuSans-115"/>
      <use x="224.658203" xlink:href="#DejaVuSans-105"/>
      <use x="252.441406" xlink:href="#DejaVuSans-108"/>
      <use x="280.224609" xlink:href="#DejaVuSans-105"/>
      <use x="308.007812" xlink:href="#DejaVuSans-233"/>
      <use x="369.53125" xlink:href="#DejaVuSans-118"/>
      <use x="428.710938" xlink:href="#DejaVuSans-105"/>
      <use x="456.494141" xlink:href="#DejaVuSans-116"/>
      <use x="495.703125" xlink:href="#DejaVuSans-99"/>
      <use x="550.683594" xlink:href="#DejaVuSans-104"/>
      <use x="614.0625" xlink:href="#DejaVuSans-101"/>
     </g>
    </g>
   </g>
   <g id="text_38">
    <g clip-path="url(#p62cd143c4d)">
     <!-- yégor -->
     <g transform="translate(349.944137 53.366064)scale(0.12 -0.12)">
      <use xlink:href="#DejaVuSans-121"/>
      <use x="59.179688" xlink:href="#DejaVuSans-233"/>
      <use x="120.703125" xlink:href="#DejaVuSans-103"/>
      <use x="184.179688" xlink:href="#DejaVuSans-111"/>
      <use x="245.361328" xlink:href="#DejaVuSans-114"/>
     </g>
    </g>
   </g>
   <g id="text_39">
    <g clip-path="url(#p62cd143c4d)">
     <!-- zavod -->
     <defs>
      <path d="M 5.515625 54.6875 
L 48.1875 54.6875 
L 48.1875 46.484375 
L 14.40625 7.171875 
L 48.1875 7.171875 
L 48.1875 0 
L 4.296875 0 
L 4.296875 8.203125 
L 38.09375 47.515625 
L 5.515625 47.515625 
z
" id="DejaVuSans-122"/>
     </defs>
     <g transform="translate(357.315933 178.683373)scale(0.12 -0.12)">
      <use xlink:href="#DejaVuSans-122"/>
      <use x="52.490234" xlink:href="#DejaVuSans-97"/>
      <use x="113.769531" xlink:href="#DejaVuSans-118"/>
      <use x="172.949219" xlink:href="#DejaVuSans-111"/>
      <use x="234.130859" xlink:href="#DejaVuSans-100"/>
     </g>
    </g>
   </g>
  </g>
 </g>
 <defs>
  <clipPath id="p62cd143c4d">
   <rect height="345.6" width="460.8" x="0" y="0"/>
  </clipPath>
 </defs>
</svg>
